<svg width="32" height="32" viewBox="0 0 32 32" fill="none" xmlns="http://www.w3.org/2000/svg">
<path fill-rule="evenodd" clip-rule="evenodd" d="M15.9573 31.9978C24.7703 31.9978 31.9146 24.8353 31.9146 16C31.9146 7.16466 24.7703 0.00219727 15.9573 0.00219727C7.14433 0.00219727 0 7.16466 0 16C0 24.8353 7.14433 31.9978 15.9573 31.9978ZM16.026 8.0011C14.7447 8.0011 12.9716 8.73571 12.0655 9.6419L9.60482 12.1031H21.8701L25.9713 8.0011H16.026ZM19.8284 22.3581C18.9224 23.2643 17.1492 23.9989 15.8679 23.9989H5.92266L10.0239 19.8969H22.2891L19.8284 22.3581ZM23.8147 14.1541H7.55865L6.79078 14.9232C4.97257 16.564 5.51182 17.8459 8.05815 17.8459H24.3582L25.1263 17.0768C26.9269 15.4456 26.361 14.1541 23.8147 14.1541Z" fill="#08BA4F"/>
</svg>
