<svg width="500" height="500" viewBox="0 0 500 500" fill="none" xmlns="http://www.w3.org/2000/svg">
<path fill-rule="evenodd" clip-rule="evenodd" d="M250 500C388.072 500 500 388.071 500 250C500 111.929 388.072 0 250 0C111.929 0 0 111.929 0 250C0 388.071 111.929 500 250 500ZM251.076 125C231.002 125 203.224 136.48 189.028 150.641L150.477 189.103H342.635L406.887 125H251.076ZM310.648 349.359C296.454 363.52 268.673 375 248.599 375H92.7892L157.043 310.897H349.199L310.648 349.359ZM373.1 221.154H118.42L106.39 233.173C77.9043 258.814 86.3526 278.846 126.246 278.846H381.615L393.649 266.827C421.859 241.336 412.993 221.154 373.1 221.154Z" fill="#D54407"/>
</svg>
