<svg width="536" height="534" viewBox="0 0 536 534" fill="none" xmlns="http://www.w3.org/2000/svg">
<rect x="12" y="11" width="512" height="512" rx="256" fill="white"/>
<path fill-rule="evenodd" clip-rule="evenodd" d="M263.819 533.809C411.552 533.809 533.293 414.435 535.734 267.18C538.176 119.925 420.395 0.550781 272.662 0.550781C124.929 0.550781 3.18849 119.925 0.746685 267.18C-1.69512 414.435 116.086 533.809 263.819 533.809ZM271.603 133.865C250.125 133.865 220.198 146.109 204.76 161.212L162.83 202.232H368.434L438.316 133.865H271.603ZM331.375 373.148C315.937 388.251 286.01 400.494 264.531 400.494H97.8181L167.701 332.128H373.304L331.375 373.148ZM400.465 236.415H127.963L114.879 249.234C83.9464 276.58 92.6317 297.945 135.316 297.945H408.555L421.644 285.126C452.277 257.941 443.149 236.415 400.465 236.415Z" fill="#4338CA"/>
</svg>
