<svg width="624" height="480" viewBox="0 0 624 480" fill="none" xmlns="http://www.w3.org/2000/svg">
<rect width="624" height="480" fill="#00A0D2"/>
<path d="M271.25 230.75L253.625 254.25V336.5C253.625 339.616 254.863 342.605 257.066 344.809C259.27 347.012 262.259 348.25 265.375 348.25H347.625C350.741 348.25 353.73 347.012 355.934 344.809C358.137 342.605 359.375 339.616 359.375 336.5V254.25L341.75 230.75H271.25Z" stroke="white" stroke-width="6" stroke-linecap="round" stroke-linejoin="round"/>
<path d="M253.625 254.25H359.375" stroke="white" stroke-width="6" stroke-linecap="round" stroke-linejoin="round"/>
<path d="M330 277.75C330 283.983 327.524 289.96 323.117 294.367C318.71 298.774 312.733 301.25 306.5 301.25C300.267 301.25 294.29 298.774 289.883 294.367C285.476 289.96 283 283.983 283 277.75" stroke="white" stroke-width="6" stroke-linecap="round" stroke-linejoin="round"/>
<path opacity="0.5" d="M273.333 124.333V144.75H275.708M338.414 152.917C336.405 136.803 322.658 124.333 306 124.333C292.291 124.333 280.554 132.778 275.708 144.75M275.708 144.75H293.75M338.667 189.667V169.25H336.292M336.292 169.25C331.446 181.222 319.709 189.667 306 189.667C289.342 189.667 275.595 177.197 273.586 161.083M336.292 169.25H318.25" stroke="white" stroke-width="6" stroke-linecap="round" stroke-linejoin="round"/>
</svg>
