<?xml version="1.0" encoding="utf-8"?>
<!-- Generator: Adobe Illustrator 24.0.1, SVG Export Plug-In . SVG Version: 6.00 Build 0)  -->
<svg version="1.1" id="Layer_1" xmlns="http://www.w3.org/2000/svg" xmlns:xlink="http://www.w3.org/1999/xlink" x="0px" y="0px"
	 viewBox="0 0 98.9 98.9" style="enable-background:new 0 0 98.9 98.9;" xml:space="preserve">
<style type="text/css">
	.st0{fill:#235AF4;}
	.st1{fill:#FFFFFF;}
</style>
<title>learndash-logomark-blue</title>
<path class="st0" d="M6,0h86.9c3.3,0,6,2.7,6,6v86.9c0,3.3-2.7,6-6,6H6c-3.3,0-6-2.7-6-6V6C0,2.7,2.7,0,6,0z"/>
<g>
	<path class="st1" d="M71.2,14.8L71.2,14.8c-4.1,0-7.4,3.3-7.4,7.4v60.7c0,0.7,0.6,1.4,1.4,1.4l0,0c7.4,0,13.4-6,13.4-13.4V22.1
		C78.5,18,75.2,14.8,71.2,14.8z"/>
	<path class="st1" d="M49.5,32.9L49.5,32.9c-4.1,0-7.4,3.3-7.4,7.4v42.6c0,0.7,0.6,1.4,1.4,1.4l0,0c7.4,0,13.4-6,13.4-13.4V40.3
		C56.8,36.2,53.6,32.9,49.5,32.9z"/>
	<path class="st1" d="M27.8,52.9L27.8,52.9c-4.1,0-7.4,3.3-7.4,7.4v22.6c0,0.7,0.6,1.4,1.4,1.4l0,0c7.4,0,13.4-6,13.4-13.4V60.3
		C35.2,56.2,31.9,52.9,27.8,52.9z"/>
</g>
</svg>
