<svg viewBox="0 0 208 116" fill="none" xmlns="http://www.w3.org/2000/svg">
<path d="M136.3 50.7C136.3 39 145.8 29.5 157.5 29.5C169.2 29.5 178.7 39 178.7 50.7V101C178.7 109 185.2 115.5 193.2 115.5C201.2 115.5 207.7 109 207.7 101V50.7C207.7 23 185.2 0.5 157.5 0.5C143.5 0.5 130.9 6.2 121.8 15.5C130.8 24.6 136.3 37 136.3 50.7Z" fill="#20D1CC"/>
<path d="M107.4 50.7C107.4 37 112.9 24.6 121.9 15.5C112.8 6.3 100.2 0.5 86.2 0.5C72.2 0.5 59.6 6.2 50.5 15.5C59.4 24.5 64.9 36.9 65 50.6C65.1 38.9 74.6 29.5 86.2 29.5C97.9 29.5 107.4 39 107.4 50.7Z" fill="#05D0E0"/>
<path d="M136.3 101V50.7C136.3 37 130.8 24.6 121.8 15.5C112.9 24.6 107.3 37 107.3 50.7V101C107.3 105 108.9 108.6 111.5 111.2C114.1 113.8 117.7 115.4 121.7 115.4C129.8 115.5 136.3 109 136.3 101Z" fill="#01A9B2"/>
<path d="M14.7 0.5C6.70001 0.5 0.200012 7 0.200012 15C0.200012 23 6.70001 29.5 14.7 29.5C26.4 29.5 35.9 39 35.9 50.6C35.9 36.9 41.4 24.6 50.4 15.5C41.3 6.3 28.7 0.5 14.7 0.5Z" fill="#0282C9"/>
<path d="M36 50.6V50.7V101C36 109 42.5 115.5 50.5 115.5C53 115.5 55.3 114.9 57.4 113.8C61.9 111.4 65 106.6 65 101.1V50.8V50.7C65 37 59.5 24.7 50.5 15.6C41.5 24.5 36 36.9 36 50.6Z" fill="#016BB1"/>
<path d="M14.7 29.5C22.7081 29.5 29.2 23.0081 29.2 15C29.2 6.99187 22.7081 0.5 14.7 0.5C6.69188 0.5 0.200012 6.99187 0.200012 15C0.200012 23.0081 6.69188 29.5 14.7 29.5Z" fill="#06429E"/>
<path d="M50.4 115.5C58.4081 115.5 64.9 109.008 64.9 101C64.9 92.9919 58.4081 86.5 50.4 86.5C42.3919 86.5 35.9 92.9919 35.9 101C35.9 109.008 42.3919 115.5 50.4 115.5Z" fill="#01569A"/>
<path d="M121.8 115.5C129.808 115.5 136.3 109.008 136.3 101C136.3 92.9919 129.808 86.5 121.8 86.5C113.792 86.5 107.3 92.9919 107.3 101C107.3 109.008 113.792 115.5 121.8 115.5Z" fill="#008C9D"/>
<path d="M193.3 115.5C201.308 115.5 207.8 109.008 207.8 101C207.8 92.9919 201.308 86.5 193.3 86.5C185.292 86.5 178.8 92.9919 178.8 101C178.8 109.008 185.292 115.5 193.3 115.5Z" fill="#03ABA3"/>
</svg>
