<svg xmlns="http://www.w3.org/2000/svg" viewBox="0 0 50 50" version="1.1" height="2rem">
    <g stroke="none" strokeWidth="1" fill="none" fillRule="evenodd">
        <g fillRule="nonzero">
            <rect fill="#00C3F7" x="0" y="0" width="50" height="50" rx="6.48"></rect>
            <g transform="translate(14.000000, 14.450238)" fill="#011B33">
                <path
                    d="M19.8104737,0.000887526222 L1.15999764,0.000887526222 C0.528078971,0.000887526222 0.000888395355,0.53340326 0.000888395355,1.17419719 L0.000888395355,3.27763434 C0.000888395355,3.93440374 0.528078971,4.45271906 1.16088517,4.45271906 L19.8095862,4.45271906 C20.4574803,4.45271906 20.9695829,3.91842827 20.9846709,3.27852187 L20.9846709,1.18928514 C20.9846709,0.534290786 20.4574803,0 19.8104737,0 L19.8104737,0.000887526222 Z M19.8104737,11.7091335 L1.15999764,11.7091335 C0.851603036,11.7097083 0.55627393,11.833721 0.339923412,12.0534936 C0.12186518,12.2746203 -0.00026564516,12.5727726 4.33856512e-07,12.8833306 L4.33856512e-07,14.9867678 C4.33856512e-07,15.6435372 0.527191445,16.160965 1.15999764,16.160965 L19.8086986,16.160965 C20.4565928,16.160965 20.9686954,15.6426497 20.9837833,14.9876553 L20.9837833,12.8833306 C20.9837833,12.2274488 20.4565928,11.7091335 19.8095862,11.7091335 L19.8104737,11.7091335 Z M11.6603204,17.549056 L1.16088517,17.549056 C0.852913569,17.549056 0.557367337,17.6724221 0.340810939,17.8925286 C0.122752706,18.1136553 0.000621881062,18.4118076 0.000887960079,18.7223657 L0.000887960079,20.8258028 C0.000887960079,21.4825722 0.528078971,22 1.16088517,22 L11.6452324,22 C12.2931266,22 12.8052292,21.4674843 12.8052292,20.8266903 L12.8052292,18.7223657 C12.8131286,18.4136747 12.6960009,18.1148813 12.4804267,17.8937924 C12.2648525,17.6727035 11.9691124,17.5480674 11.6603204,17.5481684 L11.6603204,17.549056 Z M20.9846709,5.85412296 L1.16088517,5.85412296 C0.852913569,5.85412296 0.557367337,5.97837663 0.340810939,6.19759561 C0.122536483,6.41894095 0.000388175559,6.71745483 0.000886865027,7.02832015 L0.000886865027,9.1317573 C0.000886865027,9.78763918 0.528078971,10.3059545 1.16088517,10.3059545 L20.9704705,10.3059545 C21.6183646,10.3059545 22.1297457,9.77255123 22.1297457,9.1317573 L22.1297457,7.02832015 C22.1347981,6.72039876 22.0167927,6.42315143 21.8017955,6.20265426 C21.5867982,5.98215708 21.2926258,5.85668261 20.9846709,5.85412296 L20.9846709,5.85412296 Z"></path>
            </g>
        </g>
    </g>
</svg>